<svg id="conversion_optimization" data-name="Layer 1" xmlns="http://www.w3.org/2000/svg" viewBox="0 0 58.06 56"><defs><style>.cls-1{fill:#fff;}</style></defs><title>conversion_optimization</title><path class="cls-1" d="M43.65,14.51V0H8.52V40.43H31.46V56H66.58V14.51ZM33.56,53.89V48H64.47v5.89Zm0-29.27H64.47V45.89H33.56ZM10.63,2.11h23.2v12.4H31.46V38.33H10.63Zm30.91,12.4h-5.6V2.11h5.6Zm22.93,8H33.56V16.62H64.47Z" transform="translate(-8.52 0)"/><path class="cls-1" d="M19.56,51.5l-1,3.13H17.2l3.38-10h1.55l3.4,10H24.15L23.09,51.5Zm3.26-1-1-2.86c-.22-.65-.37-1.24-.52-1.82h0c-.15.59-.31,1.2-.5,1.8l-1,2.88Z" transform="translate(-8.52 0)"/><path class="cls-1" d="M49.58,1.43a12.34,12.34,0,0,1,2.35-.21,4.11,4.11,0,0,1,2.73.72,2.09,2.09,0,0,1,.83,1.76,2.37,2.37,0,0,1-1.68,2.19v0a2.57,2.57,0,0,1,2.05,2.5,2.68,2.68,0,0,1-.84,2,5,5,0,0,1-3.44.93,15.3,15.3,0,0,1-2-.12ZM50.87,5.5H52c1.36,0,2.16-.71,2.16-1.67,0-1.17-.89-1.62-2.19-1.62a5.43,5.43,0,0,0-1.14.09Zm0,4.77a7,7,0,0,0,1.08.06c1.33,0,2.55-.49,2.55-1.93s-1.17-1.92-2.57-1.92H50.87Z" transform="translate(-8.52 0)"/></svg>