<svg id="mobile_development" data-name="Layer 1" xmlns="http://www.w3.org/2000/svg" viewBox="0 0 33.49 56"><defs><style>.cls-1{fill:none;}.cls-2{fill:#fff;}.cls-3{fill:#00b894;}</style></defs><title>mobile_development</title><path class="cls-1" d="M22.9,54H52.38V2H22.9Zm14.74-9.15A2.16,2.16,0,1,1,35.49,47,2.16,2.16,0,0,1,37.64,44.84Z" transform="translate(-20.89 0)"/><path class="cls-2" d="M20.89,0V56H54.39V0ZM52.38,54H22.9V2H52.38Z" transform="translate(-20.89 0)"/><circle class="cls-3" cx="16.75" cy="47" r="0.14"/><path class="cls-2" d="M37.64,49.15A2.16,2.16,0,1,0,35.49,47,2.16,2.16,0,0,0,37.64,49.15Zm0-2.3a.14.14,0,1,1-.14.14A.14.14,0,0,1,37.64,46.85Z" transform="translate(-20.89 0)"/></svg>