<svg id="Layer_1" data-name="Layer 1" xmlns="http://www.w3.org/2000/svg" viewBox="0 0 35 35.4"><defs><style>.cls-1{fill:#fff;}.cls-2{fill:#fcfcfc;}</style></defs><title>our_process_4</title><path class="cls-1" d="M32.71,7.49H24a.68.68,0,0,0-.68.68h0a.68.68,0,0,0,.68.68h8.72a.92.92,0,0,1,.92.92v2.66h-9.4a.68.68,0,0,0,0,1.36h9.4V33.11a.92.92,0,0,1-.92.92H2.26a.92.92,0,0,1-.92-.92V13.78h9.31a.68.68,0,0,0,0-1.36H1.34V9.77a.92.92,0,0,1,.92-.92h8.48a.68.68,0,0,0,.68-.68h0a.68.68,0,0,0-.68-.68H2.26A2.28,2.28,0,0,0,0,9.77V33.11a2.28,2.28,0,0,0,2.28,2.28H32.71A2.28,2.28,0,0,0,35,33.11V9.77A2.28,2.28,0,0,0,32.71,7.49Z" transform="translate(0.01 0.01)"/><path class="cls-1" d="M17.49,32.58a.68.68,0,0,0,.68-.68V30.05a.68.68,0,0,0-1.36,0V31.9A.68.68,0,0,0,17.49,32.58Z" transform="translate(0.01 0.01)"/><path class="cls-1" d="M20,31.34a.68.68,0,0,0,.68-.68V28.82a.68.68,0,0,0-1.36,0v1.85A.68.68,0,0,0,20,31.34Z" transform="translate(0.01 0.01)"/><path class="cls-1" d="M15,31.34a.68.68,0,0,0,.68-.68V28.82a.68.68,0,0,0-1.36,0v1.85A.68.68,0,0,0,15,31.34Z" transform="translate(0.01 0.01)"/><path class="cls-1" d="M12.61,14.19,8,20.26l1.72,4.29L14.17,21q.23.64.5,1.3l-1,2.08-1,2h8.93l-.9-1.93-1-2.11c.17-.36.4-.9.66-1.59l4.32,3.53L26.45,20l-4.33-6.11a.65.65,0,0,0-.09-.09,19.63,19.63,0,0,0-.28-5.59A15.78,15.78,0,0,0,17.35,0,15.85,15.85,0,0,0,13,8.17,20,20,0,0,0,12.61,14.19ZM17.33,2c2.81,3.36,3.9,7.61,3.23,12.64a26.26,26.26,0,0,1-1.92,6.85H15.79C11.53,10.77,15.42,4.3,17.33,2ZM14.88,25l1.05-2.16h2.57l1,2.16Zm-1.17-5.34-3.37,2.7-.75-1.88,3.27-4.35A27.2,27.2,0,0,0,13.71,19.65Zm8.07-3.94,3.14,4.43L24.16,22l-3.27-2.68A27.29,27.29,0,0,0,21.77,15.71Z" transform="translate(0.01 0.01)"/><path class="cls-1" d="M19.8,10.55a2.55,2.55,0,1,0-2.55,2.55A2.55,2.55,0,0,0,19.8,10.55Zm-2.55-1.2a1.2,1.2,0,1,1-1.2,1.2A1.2,1.2,0,0,1,17.25,9.35Z" transform="translate(0.01 0.01)"/><circle class="cls-2" cx="3.39" cy="10.87" r="0.68"/><circle class="cls-2" cx="6.11" cy="10.87" r="0.68"/><circle class="cls-2" cx="8.82" cy="10.87" r="0.68"/></svg>