<svg id="Layer_1" data-name="Layer 1" xmlns="http://www.w3.org/2000/svg" viewBox="0 0 30 26.25"><defs><style>.cls-1{fill:#fff;}.cls-2{fill:#00b894;}</style></defs><title>our_process_2</title><path class="cls-1" d="M27.06,2.81a2,2,0,0,1,2,2V25.19a2,2,0,0,1-2,2H2.94a2,2,0,0,1-2-2V4.81a2,2,0,0,1,2-2H27.06m0-.94H2.94A2.94,2.94,0,0,0,0,4.81V25.19a2.94,2.94,0,0,0,2.94,2.94H27.06A2.94,2.94,0,0,0,30,25.19V4.81a2.94,2.94,0,0,0-2.94-2.94Z" transform="translate(0 -1.88)"/><circle class="cls-2" cx="3.29" cy="2.92" r="0.44"/><path class="cls-1" d="M3.29,3.89a.91.91,0,1,0,.91.91.91.91,0,0,0-.91-.91Z" transform="translate(0 -1.88)"/><circle class="cls-2" cx="5.87" cy="2.92" r="0.44"/><path class="cls-1" d="M5.87,3.89a.91.91,0,1,0,.91.91.91.91,0,0,0-.91-.91Z" transform="translate(0 -1.88)"/><circle class="cls-2" cx="8.29" cy="2.92" r="0.44"/><path class="cls-1" d="M8.29,3.89a.91.91,0,1,0,.91.91.91.91,0,0,0-.91-.91Z" transform="translate(0 -1.88)"/><line class="cls-2" x1="11.2" y1="2.92" x2="26.31" y2="2.92"/><path class="cls-1" d="M26.31,5.26H11.2a.47.47,0,0,1,0-.94H26.31a.47.47,0,0,1,0,.94Z" transform="translate(0 -1.88)"/><line class="cls-2" x1="0.96" y1="5.14" x2="29.06" y2="5.2"/><rect class="cls-1" x="14.54" y="-7.01" width="0.94" height="28.11" transform="translate(7.94 20.16) rotate(-89.88)"/><line class="cls-2" x1="15.8" y1="9.7" x2="11.22" y2="21.46"/><path class="cls-1" d="M11.22,23.8a.46.46,0,0,1-.17,0,.47.47,0,0,1-.27-.61L15.37,11.4a.47.47,0,0,1,.87.34L11.66,23.5A.47.47,0,0,1,11.22,23.8Z" transform="translate(0 -1.88)"/><path class="cls-1" d="M18.69,20.65a.47.47,0,0,1-.22-.88l4.34-2.31-4.34-2.31a.47.47,0,0,1,.44-.83L24,17a.47.47,0,0,1,0,.83l-5.12,2.73A.47.47,0,0,1,18.69,20.65Z" transform="translate(0 -1.88)"/><path class="cls-1" d="M6.66,19.89l.09,1,.78-.69L9.28,15.8l-.87-.35Zm0,0" transform="translate(0 -1.88)"/><path class="cls-1" d="M8.62,14.93l.87.35.26-.64a.47.47,0,0,0-.87-.35Zm0,0" transform="translate(0 -1.88)"/></svg>