<?xml version="1.0" encoding="utf-8"?>
<!-- Generator: Adobe Illustrator 21.1.0, SVG Export Plug-In . SVG Version: 6.00 Build 0)  -->
<svg version="1.1" id="Layer_1" xmlns="http://www.w3.org/2000/svg" xmlns:xlink="http://www.w3.org/1999/xlink" x="0px" y="0px"
	 viewBox="0 0 23 30" style="enable-background:new 0 0 23 30;" xml:space="preserve">
<style type="text/css">
	.st0{fill:#FFFFFF;}
</style>
<title>our_process_3</title>
<path class="st0" d="M8,5.3h7c1,0,1.8-0.8,1.8-1.8v0V2.7c0-0.5-0.4-0.9-0.9-0.9h-2.6c0-1-0.8-1.8-1.8-1.8S9.7,0.8,9.7,1.8H7.1
	c-0.5,0-0.9,0.4-0.9,0.9v0.9C6.2,4.5,7,5.3,8,5.3C8,5.3,8,5.3,8,5.3z"/>
<path class="st0" d="M20.3,4.7c0.8,0,1.5,0.7,1.5,1.5v21.1c0,0.8-0.7,1.5-1.5,1.5H2.7c-0.8,0-1.5-0.7-1.5-1.5V6.2
	c0-0.8,0.7-1.5,1.5-1.5h0.8C4,6.8,5.9,8.3,8,8.2h7c2.2,0,4-1.4,4.6-3.5L20.3,4.7 M20.3,3.6h-1.8c0,1.9-1.6,3.5-3.6,3.5H8
	c-1.9,0-3.5-1.5-3.5-3.5c0,0,0,0,0,0H2.7C1.2,3.6,0,4.7,0,6.2v21.1C0,28.8,1.2,30,2.7,30h17.6c1.5,0,2.7-1.2,2.7-2.7V6.2
	C23,4.8,21.8,3.6,20.3,3.6L20.3,3.6z"/>
<path class="st0" d="M13.2,10.6h5.3c0.5,0,0.9,0.4,0.9,0.9s-0.4,0.9-0.9,0.9h-5.3c-0.5,0-0.9-0.4-0.9-0.9S12.8,10.6,13.2,10.6z
	 M13.2,16.8h5.3c0.5,0,0.9,0.4,0.9,0.9c0,0.5-0.4,0.9-0.9,0.9h-5.3c-0.5,0-0.9-0.4-0.9-0.9C12.4,17.1,12.8,16.8,13.2,16.8z
	 M13.2,22.9h5.3c0.5,0,0.9,0.4,0.9,0.9c0,0.5-0.4,0.9-0.9,0.9h-5.3c-0.5,0-0.9-0.4-0.9-0.9C12.4,23.3,12.8,22.9,13.2,22.9z
	 M3.8,10.4c-0.4-0.3-0.4-0.9,0-1.3c0.3-0.4,0.9-0.4,1.3,0l1.1,1.1l1.1-1.1c0.4-0.3,0.9-0.3,1.2,0.1c0.3,0.3,0.3,0.8,0,1.1l-1.1,1.2
	l1.1,1.1c0.3,0.3,0.3,0.9,0,1.2s-0.9,0.3-1.2,0l0,0l-1.1-1.1l-1.1,1.1c-0.4,0.3-0.9,0.3-1.2-0.1c-0.3-0.3-0.3-0.8,0-1.1L5,11.5
	L3.8,10.4z M3.8,17c0.3-0.3,0.9-0.3,1.2,0l1.1,1.1l2.9-2.9c0.3-0.4,0.9-0.4,1.2-0.1c0.4,0.3,0.4,0.9,0.1,1.2c0,0-0.1,0.1-0.1,0.1
	l-3.5,3.6c-0.3,0.3-0.9,0.3-1.2,0l-1.8-1.8C3.5,17.9,3.5,17.4,3.8,17L3.8,17z M3.8,23.2c0.3-0.3,0.9-0.3,1.2,0l1.1,1.1l2.9-2.9
	C9.4,21,10,21,10.3,21.3c0.4,0.3,0.4,0.9,0.1,1.2c0,0-0.1,0.1-0.1,0.1l-3.5,3.5c-0.3,0.3-0.9,0.3-1.2,0l-1.8-1.8
	C3.5,24.1,3.5,23.5,3.8,23.2z"/>
</svg>
