<svg id="Layer_1" data-name="Layer 1" xmlns="http://www.w3.org/2000/svg" viewBox="0 0 30 29.18"><defs><style>.cls-1,.cls-3{fill:none;}.cls-2{fill:#fff;}.cls-3{stroke:#00b894;stroke-linecap:round;stroke-linejoin:round;stroke-width:0;}</style></defs><title>our_process_1</title><circle class="cls-1" cx="7.13" cy="13.27" r="2.43"/><path class="cls-1" d="M12,6.1l.33.33,1.73,1.73V1.4H3.74V6.1H12ZM5.41,3.88h0V3.32h7V4.44h-7V3.88Z" transform="translate(0 -0.29)"/><circle class="cls-1" cx="21.3" cy="9.64" r="2.43"/><polygon class="cls-1" points="1.6 23.2 3.41 28.07 11.33 28.07 12.96 23.2 1.6 23.2"/><path class="cls-1" d="M12.94,22.38H14.5l-1.92,5.71H27.13v-8H12.4A5.77,5.77,0,0,1,12.94,22.38Z" transform="translate(0 -0.29)"/><path class="cls-1" d="M7.13,17.82a4.72,4.72,0,0,0-4.7,4.55h9.4A4.72,4.72,0,0,0,7.13,17.82Z" transform="translate(0 -0.29)"/><path class="cls-2" d="M21.3,14.2A4.73,4.73,0,0,1,26,18.92h1.11a5.83,5.83,0,0,0-4.56-5.68,3.54,3.54,0,1,0-2.53,0,5.83,5.83,0,0,0-4.56,5.68h1.11A4.73,4.73,0,0,1,21.3,14.2ZM18.87,9.93a2.43,2.43,0,1,1,2.43,2.43A2.44,2.44,0,0,1,18.87,9.93Z" transform="translate(0 -0.29)"/><line class="cls-3" x1="11.47" y1="19.26" x2="11.47" y2="19.26"/><path class="cls-2" d="M11.72,19a5.82,5.82,0,0,0-3.33-2.13,3.54,3.54,0,1,0-2.53,0,5.83,5.83,0,0,0-4.55,5.52H0l2.64,7.09h9.49l.28-.83v.55H28.24V20.1H30V19Zm-.25.56h0Zm-6.78-6A2.43,2.43,0,1,1,7.13,16,2.44,2.44,0,0,1,4.69,13.56Zm2.43,4.26a4.72,4.72,0,0,1,4.7,4.55H2.42A4.72,4.72,0,0,1,7.13,17.82Zm4.2,10.53H3.41L1.6,23.49H13Zm15.81-.27H12.59l1.92-5.71H12.94a5.77,5.77,0,0,0-.54-2.27H27.13Z" transform="translate(0 -0.29)"/><path class="cls-2" d="M15.16,10.84V.29H2.63V7.21h8.9ZM3.74,1.4H14.05V8.16L12.32,6.43,12,6.1H3.74Z" transform="translate(0 -0.29)"/><line class="cls-3" x1="5.41" y1="3.59" x2="5.41" y2="3.59"/><polygon class="cls-2" points="12.43 4.14 12.43 3.03 5.41 3.03 5.41 3.59 5.41 4.14 12.43 4.14"/></svg>