<svg id="Layer_1" data-name="Layer 1" xmlns="http://www.w3.org/2000/svg" viewBox="0 0 30 25.49"><defs><style>.cls-1{fill:none;}.cls-2{fill:#fff;}</style></defs><title>our_process_5</title><polygon class="cls-1" points="9.24 18.82 12.54 18.82 12.54 16.09 12.54 15.05 12.54 10.44 9.24 10.44 9.24 18.82"/><rect class="cls-1" x="1.02" y="10.44" width="7.19" height="8.38"/><polygon class="cls-1" points="16.44 1.02 9.24 1.02 9.24 9.42 12.54 9.42 12.54 5.64 16.44 5.64 16.44 1.02"/><rect class="cls-1" x="1.02" y="1.02" width="7.19" height="8.4"/><rect class="cls-1" x="13.56" y="6.67" width="15.41" height="8.4"/><rect class="cls-1" x="13.56" y="16.09" width="7.19" height="8.38"/><rect class="cls-1" x="21.78" y="16.09" width="7.19" height="8.38"/><path class="cls-2" d="M17.46,5.64V0H0V19.85H12.54v5.64H30V5.64ZM1,1H8.21v8.4H1Zm0,9.42H8.21v8.38H1ZM12.54,15v3.78H9.24V10.44h3.3Zm0-5.63H9.24V1h7.19V5.64h-3.9Zm1,6.67h7.19v8.38H13.56ZM29,24.47H21.78V16.09H29Zm0-9.4H13.56V6.67H29Z" transform="translate(0 0)"/></svg>