<svg id="ui_ux_design" data-name="Layer 1" xmlns="http://www.w3.org/2000/svg" viewBox="0 0 74.66 56"><defs><style>.cls-1{fill:none;}.cls-2{fill:#fff;}</style></defs><title>ui_ux_design</title><rect class="cls-1" x="39.96" y="9.22" width="1.28" height="1.28"/><rect class="cls-1" x="39.96" y="23.82" width="1.28" height="1.28"/><rect class="cls-1" x="25.36" y="23.82" width="1.28" height="1.28"/><polygon class="cls-1" points="49.5 34.06 42.56 27.12 46.7 39.55 49.5 34.06"/><rect class="cls-1" x="25.36" y="9.22" width="1.28" height="1.28"/><path class="cls-1" d="M36.75,42.77h2.54v2.51H72.4V2.53H2.83V45.27H36.42V42.77ZM39.28,9A.75.75,0,0,1,40,8.25h1.71a.75.75,0,0,1,.75.75V10.7a.75.75,0,0,1-.75.75H40a.75.75,0,0,1-.75-.75ZM40.89,19a.48.48,0,0,1-.48-.48v-.45a.48.48,0,1,1,1,0v.45A.48.48,0,0,1,40.89,19Zm.48,1.79v.45a.48.48,0,0,1-1,0v-.45a.48.48,0,1,1,1,0Zm-.48-4.51a.48.48,0,0,1-.48-.48v-.45a.48.48,0,0,1,1,0v.45A.48.48,0,0,1,40.89,16.33Zm0-2.72a.48.48,0,0,1-.48-.48v-.45a.48.48,0,0,1,1,0v.45A.48.48,0,0,1,40.89,13.6Zm-1.6,10a.75.75,0,0,1,.75-.75h1.71a.75.75,0,0,1,.75.75v1.47L49,27.25a.48.48,0,0,1-.3.91l-5.21-1.74,6.94,6.94L56,30.57l-5.1-1.7a.48.48,0,0,1,.3-.91l5.89,2A.61.61,0,0,1,57.14,31l-6.41,3.26-3.26,6.41a.61.61,0,0,1-1.12-.08L41.48,26H40a.75.75,0,0,1-.75-.75ZM37.51,9.37H38a.48.48,0,0,1,0,1h-.45a.48.48,0,1,1,0-1ZM37.29,24h.45a.48.48,0,0,1,0,1h-.45a.48.48,0,0,1,0-1Zm-9.4,1.34a.75.75,0,0,1-.75.75H25.43a.75.75,0,0,1-.75-.75V23.59a.75.75,0,0,1,.75-.75h1.71a.75.75,0,0,1,.75.75Zm-1.6-10.16a.48.48,0,0,1,.48.48v.45a.48.48,0,1,1-1,0v-.45A.48.48,0,0,1,26.29,15.14Zm-.48-1.79v-.45a.48.48,0,0,1,1,0v.45a.48.48,0,1,1-1,0Zm.48,4.51a.48.48,0,0,1,.48.48v.45a.48.48,0,1,1-1,0v-.45A.48.48,0,0,1,26.29,17.86Zm0,2.72a.48.48,0,0,1,.48.48v.45a.48.48,0,1,1-1,0v-.45A.48.48,0,0,1,26.29,20.58Zm1.6-9.88a.75.75,0,0,1-.75.75H25.43a.75.75,0,0,1-.75-.75V9a.75.75,0,0,1,.75-.75h1.71a.75.75,0,0,1,.75.75Zm1.68,14.22h-.45a.48.48,0,0,1,0-1h.45a.48.48,0,0,1,0,1Zm.22-14.6h-.45a.48.48,0,0,1,0-1h.45a.48.48,0,0,1,0,1Zm2.5,14.6h-.45a.48.48,0,0,1,0-1h.45a.48.48,0,0,1,0,1Zm.22-14.6h-.45a.48.48,0,0,1,0-1h.45a.48.48,0,1,1,0,1ZM35,24.93h-.45a.48.48,0,0,1,0-1H35a.48.48,0,0,1,0,1Zm.22-14.6h-.45a.48.48,0,0,1,0-1h.45a.48.48,0,1,1,0,1Z" transform="translate(-0.29 0.02)"/><path class="cls-2" d="M74.94,47.81V0H.29V47.81H36.42v5.63H17.67V56H58V53.44H39.29V47.81ZM2.83,45.27V2.53H72.4V45.27H39.29V42.77H36.42v2.51Z" transform="translate(-0.29 0.02)"/><path class="cls-2" d="M40,11.45h1.71a.75.75,0,0,0,.75-.75V9a.75.75,0,0,0-.75-.75H40a.75.75,0,0,0-.75.75V10.7A.75.75,0,0,0,40,11.45Zm.21-2.24h1.28v1.28H40.24Z" transform="translate(-0.29 0.02)"/><path class="cls-2" d="M27.14,8.25H25.43a.75.75,0,0,0-.75.75V10.7a.75.75,0,0,0,.75.75h1.71a.75.75,0,0,0,.75-.75V9A.75.75,0,0,0,27.14,8.25Zm-.21,2.24H25.65V9.21h1.28Z" transform="translate(-0.29 0.02)"/><path class="cls-2" d="M27.14,22.84H25.43a.75.75,0,0,0-.75.75V25.3a.75.75,0,0,0,.75.75h1.71a.75.75,0,0,0,.75-.75V23.59A.75.75,0,0,0,27.14,22.84Zm-.21,2.24H25.65V23.8h1.28Z" transform="translate(-0.29 0.02)"/><path class="cls-2" d="M41.37,12.67a.48.48,0,0,0-1,0v.45a.48.48,0,1,0,1,0Z" transform="translate(-0.29 0.02)"/><path class="cls-2" d="M41.37,15.39a.48.48,0,0,0-1,0v.45a.48.48,0,1,0,1,0Z" transform="translate(-0.29 0.02)"/><path class="cls-2" d="M40.89,20.36a.48.48,0,0,0-.48.48v.45a.48.48,0,0,0,1,0v-.45A.48.48,0,0,0,40.89,20.36Z" transform="translate(-0.29 0.02)"/><path class="cls-2" d="M41.37,18.11a.48.48,0,1,0-1,0v.45a.48.48,0,0,0,1,0Z" transform="translate(-0.29 0.02)"/><path class="cls-2" d="M25.81,16.07a.48.48,0,1,0,1,0v-.45a.48.48,0,0,0-1,0Z" transform="translate(-0.29 0.02)"/><path class="cls-2" d="M26.29,13.83a.48.48,0,0,0,.48-.48v-.45a.48.48,0,0,0-1,0v.45A.48.48,0,0,0,26.29,13.83Z" transform="translate(-0.29 0.02)"/><path class="cls-2" d="M25.81,21.51a.48.48,0,1,0,1,0v-.45a.48.48,0,0,0-1,0Z" transform="translate(-0.29 0.02)"/><path class="cls-2" d="M25.81,18.79a.48.48,0,1,0,1,0v-.45a.48.48,0,0,0-1,0Z" transform="translate(-0.29 0.02)"/><path class="cls-2" d="M35.24,9.37h-.45a.48.48,0,0,0,0,1h.45a.48.48,0,1,0,0-1Z" transform="translate(-0.29 0.02)"/><path class="cls-2" d="M32.52,9.37h-.45a.48.48,0,0,0,0,1h.45a.48.48,0,1,0,0-1Z" transform="translate(-0.29 0.02)"/><path class="cls-2" d="M37.51,10.33H38a.48.48,0,0,0,0-1h-.45a.48.48,0,1,0,0,1Z" transform="translate(-0.29 0.02)"/><path class="cls-2" d="M29.8,9.37h-.45a.48.48,0,0,0,0,1h.45a.48.48,0,0,0,0-1Z" transform="translate(-0.29 0.02)"/><path class="cls-2" d="M35,24h-.45a.48.48,0,0,0,0,1H35a.48.48,0,0,0,0-1Z" transform="translate(-0.29 0.02)"/><path class="cls-2" d="M29.57,24h-.45a.48.48,0,0,0,0,1h.45a.48.48,0,0,0,0-1Z" transform="translate(-0.29 0.02)"/><path class="cls-2" d="M37.29,24.93h.45a.48.48,0,0,0,0-1h-.45a.48.48,0,0,0,0,1Z" transform="translate(-0.29 0.02)"/><path class="cls-2" d="M32.3,24h-.45a.48.48,0,0,0,0,1h.45a.48.48,0,0,0,0-1Z" transform="translate(-0.29 0.02)"/><path class="cls-2" d="M40,26h1.45l4.86,14.59a.61.61,0,0,0,1.12.08l3.26-6.41L57.14,31a.61.61,0,0,0-.08-1.12l-5.89-2a.48.48,0,0,0-.3.91l5.1,1.7-5.49,2.8-6.94-6.94,5.21,1.74a.48.48,0,0,0,.3-.91l-6.54-2.18V23.59a.75.75,0,0,0-.75-.75H40a.75.75,0,0,0-.75.75V25.3A.75.75,0,0,0,40,26Zm9.75,8L47,39.54,42.84,27.1ZM40.24,23.8h1.28v1.28H40.24Z" transform="translate(-0.29 0.02)"/></svg>