<svg id="web_development" data-name="Layer 1" xmlns="http://www.w3.org/2000/svg" viewBox="0 0 75 55.03"><defs><style>.cls-1{fill:none;}.cls-2{fill:#fff;}.cls-3{fill:#00b894;}</style></defs><title>web_development</title><polygon class="cls-1" points="46.25 29.2 49.73 29.2 49.73 20.02 46.25 20.02 44.27 20.02 32.25 20.02 32.25 36.81 32.25 38.79 32.25 42.24 32.25 44.22 32.25 48.23 41.79 48.23 41.79 44.22 41.79 42.24 41.79 38.79 41.79 36.81 41.79 29.2 44.27 29.2 46.25 29.2"/><polygon class="cls-1" points="46.25 18.04 51.71 18.04 51.71 29.2 57.24 29.2 57.24 35.26 73.02 35.26 73.02 1.98 18.86 1.98 18.86 12.17 46.25 12.17 46.25 18.04"/><polygon class="cls-1" points="4.08 42.24 30.27 42.24 30.27 38.79 6.79 38.79 4.08 42.24"/><polygon class="cls-1" points="44.27 14.15 7.81 14.15 7.81 36.81 30.27 36.81 30.27 18.04 44.27 18.04 44.27 14.15"/><path class="cls-1" d="M49.73,31.18h-6V53.05H55.26V31.18H49.73Zm-.21,20.69a1,1,0,1,1,1-1A1,1,0,0,1,49.52,51.87Z" transform="translate(0 0)"/><path class="cls-2" d="M75,37.24V0H16.88V12.17h-11V36.81L0,44.22H30.27v6H41.8V55H57.25V41.62h4.6v-2h-4.6v-2.4ZM18.86,2H73V35.26H57.25V29.2H51.71V18H46.26V12.17H18.86ZM30.27,42.24H4.08l2.71-3.45H30.27Zm0-5.43H7.81V14.15H44.28V18h-14Zm11.53,0V48.23H32.25V20H49.73V29.2H41.8ZM55.26,53.05H43.78V31.18H55.26Z" transform="translate(0 0)"/><circle class="cls-3" cx="49.52" cy="50.88" r="0.49"/><path class="cls-2" d="M49.52,49.89a1,1,0,1,0,1,1,1,1,0,0,0-1-1Z" transform="translate(0 0)"/></svg>